<svg width="662" height="578" viewBox="0 0 662 578" fill="none" xmlns="http://www.w3.org/2000/svg">
<path d="M652 289C652 441.856 509.601 568 331 568C152.399 568 10 441.856 10 289C10 136.144 152.399 10 331 10C509.601 10 652 136.144 652 289Z" fill="#735620" stroke="#010D00" stroke-width="20"/>
<mask id="mask0_3_45" style="mask-type:alpha" maskUnits="userSpaceOnUse" x="0" y="0" width="662" height="578">
<path d="M652 289C652 441.856 509.601 568 331 568C152.399 568 10 441.856 10 289C10 136.144 152.399 10 331 10C509.601 10 652 136.144 652 289Z" fill="#735620" stroke="#010D00" stroke-width="20"/>
</mask>
<g mask="url(#mask0_3_45)">
<rect x="8" y="351.377" width="834" height="237.623" fill="#F2E74B"/>
<path d="M18.9737 277.105L23.6705 286.849C28.3128 296.229 37.5426 316.264 46.827 320.817C56.4392 325.371 65.9421 316.264 75.2265 286.849C84.511 257.981 93.7954 208.804 103.08 179.936C112.583 150.521 122.195 141.415 131.479 131.397C140.709 121.38 150.048 112.273 159.333 112C168.781 112.273 177.902 121.38 187.732 150.795C196.853 179.663 206.301 228.839 215.586 267.361C224.925 306.246 234.154 335.388 243.439 330.561C253.051 325.371 262.554 287.122 271.838 281.931C281.123 277.105 290.407 306.246 299.692 301.42C309.195 296.229 318.807 257.981 328.091 252.79C337.321 247.963 346.66 277.105 355.945 272.278C365.393 267.087 374.513 228.839 384.344 213.995C393.465 199.698 402.913 208.804 412.197 209.078C421.536 208.804 430.766 199.698 440.051 189.68C449.663 179.663 459.166 170.556 468.45 170.283C477.735 170.556 487.019 179.663 496.304 204.251C505.806 228.839 515.419 267.087 524.703 277.105C533.933 287.122 543.272 267.088 552.556 262.534C562.005 257.981 571.125 267.088 580.956 257.708C590.076 247.963 599.525 218.822 608.809 189.68C618.148 160.539 627.378 131.397 636.663 121.653C646.275 112.273 655.778 121.38 665.062 126.571C674.346 131.397 683.631 131.397 692.915 145.968C702.418 160.539 712.03 189.68 721.315 204.251C730.545 218.822 739.884 218.822 749.168 204.251C758.616 189.68 767.737 160.539 777.568 179.936C786.688 199.698 796.137 267.087 800.506 301.42L805.421 335.388V364.529H800.724C796.082 364.529 786.852 364.529 777.568 364.529C767.955 364.529 758.453 364.529 749.168 364.529C739.884 364.529 730.599 364.529 721.315 364.529C711.812 364.529 702.2 364.529 692.915 364.529C683.685 364.529 674.346 364.529 665.062 364.529C655.614 364.529 646.493 364.529 636.663 364.529C627.542 364.529 618.094 364.529 608.809 364.529C599.47 364.529 590.24 364.529 580.956 364.529C571.344 364.529 561.841 364.529 552.556 364.529C543.272 364.529 533.987 364.529 524.703 364.529C515.2 364.529 505.588 364.529 496.304 364.529C487.074 364.529 477.735 364.529 468.45 364.529C459.002 364.529 449.881 364.529 440.051 364.529C430.93 364.529 421.482 364.529 412.197 364.529C402.858 364.529 393.628 364.529 384.344 364.529C374.732 364.529 365.229 364.529 355.945 364.529C346.66 364.529 337.376 364.529 328.091 364.529C318.588 364.529 308.976 364.529 299.692 364.529C290.462 364.529 281.123 364.529 271.838 364.529C262.39 364.529 253.269 364.529 243.439 364.529C234.318 364.529 224.87 364.529 215.586 364.529C206.246 364.529 197.017 364.529 187.732 364.529C178.12 364.529 168.617 364.529 159.333 364.529C150.048 364.529 140.764 364.529 131.479 364.529C121.976 364.529 112.364 364.529 103.08 364.529C93.85 364.529 84.511 364.529 75.2265 364.529C65.7782 364.529 56.6576 364.529 46.827 364.529C37.7064 364.529 28.2581 364.529 23.889 364.529H18.9737V277.105Z" fill="#F2E74B"/>
<path d="M14 273.141L24.4 257.141C34.9 241.141 56 209.141 77 214.441C97.5 220.141 118 262.141 139 283.841C160.1 305.141 181 305.141 202 310.441C222.7 316.141 244 326.141 264 299.841C285.3 273.141 306 209.141 327 182.441C347.9 156.141 369 166.141 390 177.141C410.5 188.141 431 198.141 452 235.841C473.1 273.141 494 337.141 515 342.441C535.7 348.141 557 294.141 577 262.441C598.3 230.141 619 220.141 640 214.441C661 209.141 682 209.141 703 246.441C723.6 284.141 744 358.141 765 347.841C786.2 337.141 807 241.141 828 187.841C848.8 134.141 870 124.141 891 129.141C911.4 134.141 932 156.141 953 171.841C974 188.141 995 198.141 1016 225.141C1036.6 252.141 1057 294.141 1078 315.841C1099.2 337.141 1120 337.141 1141 305.141C1161.8 273.141 1183 209.141 1204 182.441C1224.4 156.141 1245 166.141 1266 193.141C1287 220.141 1308 262.141 1329 299.841C1349.7 337.141 1371 369.141 1391 385.141C1412.3 401.141 1433 401.141 1444 401.141H1454V433.141H1443.6C1433.1 433.141 1412 433.141 1391 433.141C1370.5 433.141 1350 433.141 1329 433.141C1307.9 433.141 1287 433.141 1266 433.141C1245.3 433.141 1224 433.141 1204 433.141C1182.7 433.141 1162 433.141 1141 433.141C1120.1 433.141 1099 433.141 1078 433.141C1057.5 433.141 1037 433.141 1016 433.141C994.9 433.141 974 433.141 953 433.141C932.3 433.141 911 433.141 891 433.141C869.7 433.141 849 433.141 828 433.141C807 433.141 786 433.141 765 433.141C744.4 433.141 724 433.141 703 433.141C681.8 433.141 661 433.141 640 433.141C619.2 433.141 598 433.141 577 433.141C556.6 433.141 536 433.141 515 433.141C494 433.141 473 433.141 452 433.141C431.4 433.141 411 433.141 390 433.141C368.8 433.141 348 433.141 327 433.141C306.2 433.141 285 433.141 264 433.141C243.6 433.141 223 433.141 202 433.141C181 433.141 160 433.141 139 433.141C118.3 433.141 97 433.141 77 433.141C55.7 433.141 35 433.141 24 433.141H14V273.141Z" fill="#F2D544"/>
<path d="M-166 305.14L-154.806 279.554C-143.503 253.968 -120.792 202.796 -98.1875 168.734C-76.1215 134.033 -54.0556 118.042 -31.4514 134.513C-8.73959 151.624 13.7569 202.796 36.3611 271.078C58.6424 338.721 81.5694 425.074 103.097 424.595C126.024 425.074 148.306 338.721 170.91 347.837C193.406 356.312 216.118 458.656 238.722 467.131C260.788 476.246 282.854 389.894 305.458 347.837C328.17 305.14 350.667 305.14 373.271 322.25C395.552 338.721 418.479 373.902 440.007 399.009C462.934 425.074 485.215 441.066 507.819 399.009C530.424 356.312 553.028 253.968 575.632 185.685C597.806 118.042 619.764 82.8614 642.368 117.562C665.187 151.624 687.576 253.968 710.181 271.078C732.569 287.549 755.389 220.386 777.993 236.857C799.951 253.968 822.125 356.312 844.729 424.595C867.333 492.238 889.937 527.418 912.542 518.303C934.715 509.828 956.674 458.656 979.278 424.595C1002.1 389.894 1024.49 373.902 1047.09 381.898C1069.48 389.894 1092.3 425.074 1114.9 415.959C1136.86 407.484 1159.03 356.312 1181.64 347.837C1204.24 338.721 1226.85 373.902 1249.45 407.484C1271.73 441.066 1294.66 476.246 1316.19 441.545C1339.11 407.484 1361.4 305.14 1373.24 253.968L1384 202.796V561H1372.81C1361.5 561 1338.79 561 1316.19 561C1294.12 561 1272.06 561 1249.45 561C1226.74 561 1204.24 561 1181.64 561C1159.36 561 1136.43 561 1114.9 561C1091.98 561 1069.69 561 1047.09 561C1024.59 561 1001.88 561 979.278 561C957.212 561 935.146 561 912.542 561C889.83 561 867.333 561 844.729 561C822.448 561 799.521 561 777.993 561C755.066 561 732.785 561 710.181 561C687.576 561 664.972 561 642.368 561C620.194 561 598.236 561 575.632 561C552.812 561 530.424 561 507.819 561C485.431 561 462.611 561 440.007 561C418.049 561 395.875 561 373.271 561C350.667 561 328.062 561 305.458 561C283.285 561 261.326 561 238.722 561C215.903 561 193.514 561 170.91 561C148.521 561 125.701 561 103.097 561C81.1389 561 58.9653 561 36.3611 561C13.7569 561 -8.84723 561 -31.4514 561C-53.7326 561 -76.6597 561 -98.1875 561C-121.115 561 -143.396 561 -155.236 561H-166V305.14Z" fill="#F2B441"/>
</g>
<mask id="path-7-inside-1_3_45" fill="white">
<path d="M560.167 268.667C561.833 257.833 563.5 248.25 564.75 240.75C565.167 238.667 566.417 230.75 568.917 221.167C570.583 214.5 571.417 211.583 572.667 209.083C575.167 202.833 578.083 198.25 580.583 195.333C581 194.917 582.25 193.25 584.75 192.833C587.25 192.417 589.333 194.083 589.333 194.083C591 195.75 593.917 198.25 596.833 202C601 206.583 601.833 208.667 608.083 217C610.167 219.917 613.083 223.25 616 227C616.833 228.25 619.75 231.583 623.917 236.583C627.667 241.167 633.083 247 639.333 253.667C638.083 252.417 620.167 234.5 594.75 239.917C579.75 243.25 565.583 254.083 560.583 268.667C559.75 270.75 559.333 272.833 558.917 275.333C557.667 282 557.25 288.667 556.417 295.333C555.583 302 554.333 309.083 553.5 315.75L547.25 359.5C545.583 370.333 544.333 381.167 542.667 392C541.833 397.833 540.167 406.167 538.5 415.75C532.25 447.833 524.75 484.083 501 508.25C494.75 514.5 486.833 519.917 477.667 519.917C467.25 519.917 458.5 512.417 452.25 504.5C438.083 485.333 432.667 460.333 427.25 437.417C421.417 413.25 417.667 390.75 415.583 370.333C415.167 367.833 414.75 365.75 414.75 363.25L399.75 255.75C392.25 202.833 386.833 149.5 375.167 97.4167C371.833 82 367.667 66.1667 360.167 52.4167C353.917 40.75 344.333 26.1667 330.167 24.9167C322.667 24.0833 315.167 27.4167 309.333 32.4167C283.083 54.9167 281 94.0833 275.583 126.167C271.833 148.25 268.917 169.5 266.417 189.917C265.583 196.167 264.75 202 263.917 208.25C258.917 244.5 253.917 280.75 249.333 317C242.667 364.917 238.5 413.25 227.25 460.333C222.667 479.917 216 500.75 199.75 512.833C195.167 516.167 189.75 519.083 183.917 519.5C178.083 519.917 172.25 517.833 167.25 514.917C157.25 509.083 149.75 499.917 144.333 489.917C138.917 479.917 135.167 468.667 132.25 457.833C123.5 427.417 118.083 396.583 113.5 365.333C111 348.667 108.083 332 105.583 315.333C103.5 302.833 102.25 290.75 99.75 278.25C96.8333 261.167 81.8333 247.417 65.1667 243.667C41.8333 238.25 24.75 253.25 23.0833 254.5C31.4167 246.167 37.6667 238.667 41.4167 233.25C58.5 209.083 63.0833 202.417 63.0833 202.417C63.5 201.583 65.1667 199.5 67.25 197C69.3333 194.917 71.4167 193.667 73.0833 192.833C74.3333 193.25 76.4167 194.5 78.5 196.167C84.3333 201.167 85.5833 207.833 86.4167 211.583C88.5 221.167 91.8333 230.75 93.0833 240.75C94.3333 247.833 96 258.667 98.5 272.833M371 79.0833C366.417 58.6667 348.083 43.6667 327.25 43.6667C306.417 43.6667 288.5 58.6667 283.917 79.0833M434.333 463.25C441 485.333 462.25 499.917 484.333 498.25C503.917 497 521 482.833 526.833 463.25M131.833 457.833C136.417 480.333 156.417 496.583 178.917 496.583C202.25 497 222.667 480.75 227.667 457.833"/>
<path d="M662 289C662 448.61 513.806 578 331 578C148.194 578 0 448.61 0 289C0 129.39 148.194 0 331 0C513.806 0 662 129.39 662 289Z"/>
</mask>
<path d="M540.399 265.626C538.72 276.543 546.208 286.755 557.125 288.434C568.043 290.114 578.254 282.625 579.934 271.708L540.399 265.626ZM564.75 240.75L545.138 236.828C545.096 237.038 545.057 237.25 545.022 237.462L564.75 240.75ZM568.917 221.167L588.269 226.215C588.286 226.149 588.303 226.083 588.319 226.017L568.917 221.167ZM572.667 209.083L590.555 218.028C590.803 217.532 591.03 217.026 591.236 216.511L572.667 209.083ZM580.583 195.333L566.441 181.191C566.079 181.553 565.731 181.929 565.398 182.318L580.583 195.333ZM589.333 194.083L603.475 179.941C602.954 179.419 602.403 178.927 601.827 178.466L589.333 194.083ZM596.833 202L581.046 214.279C581.36 214.683 581.69 215.075 582.034 215.453L596.833 202ZM608.083 217L624.358 205.375C624.268 205.249 624.176 205.124 624.083 205L608.083 217ZM616 227L632.641 215.906C632.371 215.501 632.086 215.106 631.787 214.721L616 227ZM623.917 236.583L639.396 223.919C639.358 223.872 639.32 223.826 639.281 223.78L623.917 236.583ZM639.333 253.667L625.191 267.809C632.913 275.53 645.4 275.631 653.246 268.035C661.091 260.439 661.393 247.954 653.924 239.988L639.333 253.667ZM594.75 239.917L590.581 220.356C590.525 220.368 590.468 220.38 590.411 220.393L594.75 239.917ZM560.583 268.667L579.153 276.094C579.277 275.784 579.394 275.47 579.502 275.153L560.583 268.667ZM558.917 275.333L578.574 279.019C578.599 278.887 578.622 278.754 578.645 278.621L558.917 275.333ZM553.5 315.75L573.299 318.578C573.316 318.463 573.331 318.347 573.346 318.231L553.5 315.75ZM547.25 359.5L567.017 362.541C567.028 362.47 567.039 362.399 567.049 362.328L547.25 359.5ZM542.667 392L522.899 388.959C522.888 389.03 522.878 389.101 522.868 389.172L542.667 392ZM538.5 415.75L558.131 419.574C558.157 419.442 558.181 419.31 558.204 419.177L538.5 415.75ZM501 508.25L515.142 522.392C515.183 522.351 515.224 522.31 515.265 522.269L501 508.25ZM452.25 504.5L436.166 516.388C436.292 516.558 436.421 516.727 436.552 516.893L452.25 504.5ZM427.25 437.417L446.714 432.816C446.706 432.785 446.699 432.755 446.692 432.724L427.25 437.417ZM415.583 370.333L435.48 368.303C435.437 367.882 435.381 367.463 435.311 367.045L415.583 370.333ZM414.75 363.25H434.75C434.75 362.325 434.686 361.402 434.558 360.486L414.75 363.25ZM399.75 255.75L419.558 252.986C419.556 252.972 419.554 252.958 419.552 252.943L399.75 255.75ZM375.167 97.4167L355.618 101.643C355.629 101.692 355.639 101.74 355.65 101.788L375.167 97.4167ZM360.167 52.4167L342.537 61.8611C342.561 61.9054 342.585 61.9496 342.609 61.9937L360.167 52.4167ZM330.167 24.9167L327.958 44.7944C328.108 44.811 328.258 44.826 328.409 44.8393L330.167 24.9167ZM309.333 32.4167L322.349 47.6018L322.349 47.6018L309.333 32.4167ZM275.583 126.167L295.301 129.515C295.302 129.509 295.303 129.502 295.304 129.496L275.583 126.167ZM266.417 189.917L286.241 192.56C286.251 192.489 286.26 192.418 286.268 192.348L266.417 189.917ZM263.917 208.25L283.729 210.983C283.733 210.953 283.737 210.923 283.741 210.893L263.917 208.25ZM249.333 317L269.143 319.756C269.154 319.674 269.165 319.591 269.175 319.509L249.333 317ZM227.25 460.333L207.798 455.685C207.79 455.715 207.783 455.746 207.776 455.776L227.25 460.333ZM199.75 512.833L211.513 529.008C211.571 528.967 211.627 528.925 211.684 528.883L199.75 512.833ZM132.25 457.833L151.562 452.634C151.533 452.524 151.502 452.414 151.471 452.304L132.25 457.833ZM113.5 365.333L133.288 362.431C133.285 362.41 133.282 362.388 133.279 362.367L113.5 365.333ZM105.583 315.333L125.362 312.367C125.346 312.259 125.329 312.152 125.311 312.045L105.583 315.333ZM99.75 278.25L80.0353 281.616C80.067 281.802 80.1014 281.987 80.1384 282.172L99.75 278.25ZM65.1667 243.667L60.6441 263.149C60.6882 263.159 60.7323 263.169 60.7764 263.179L65.1667 243.667ZM23.0833 254.5L8.94121 240.358C1.51974 247.779 1.09757 259.675 7.97426 267.604C14.851 275.533 26.6869 276.797 35.0833 270.5L23.0833 254.5ZM41.4167 233.25L25.0851 221.705C25.0474 221.759 25.01 221.812 24.9728 221.866L41.4167 233.25ZM63.0833 202.417L79.5641 213.747C80.088 212.985 80.5584 212.188 80.9719 211.361L63.0833 202.417ZM67.25 197L53.1079 182.858C52.6804 183.285 52.2726 183.732 51.8856 184.196L67.25 197ZM73.0833 192.833L79.4079 173.86C74.3758 172.182 68.8834 172.573 64.1391 174.945L73.0833 192.833ZM78.5 196.167L91.5158 180.982C91.3443 180.835 91.1703 180.69 90.9939 180.549L78.5 196.167ZM86.4167 211.583L105.96 207.335C105.954 207.305 105.947 207.275 105.94 207.245L86.4167 211.583ZM93.0833 240.75L73.2378 243.231C73.2794 243.564 73.3294 243.895 73.3877 244.226L93.0833 240.75ZM78.8043 276.309C80.7239 287.187 91.0981 294.449 101.976 292.529C112.853 290.609 120.115 280.235 118.196 269.358L78.8043 276.309ZM351.486 83.4641C353.905 94.2416 364.603 101.017 375.381 98.5977C386.158 96.1782 392.934 85.48 390.514 74.7026L351.486 83.4641ZM264.402 74.7026C261.983 85.48 268.758 96.1782 279.536 98.5977C290.313 101.017 301.012 94.2416 303.431 83.4641L264.402 74.7026ZM453.48 457.47C450.288 446.896 439.128 440.911 428.553 444.103C417.979 447.296 411.995 458.456 415.187 469.03L453.48 457.47ZM484.333 498.25L483.059 478.291C482.982 478.296 482.905 478.301 482.828 478.307L484.333 498.25ZM546.001 468.96C549.154 458.373 543.129 447.236 532.543 444.082C521.957 440.929 510.819 446.954 507.666 457.54L546.001 468.96ZM151.431 453.841C149.226 443.018 138.665 436.031 127.841 438.236C117.018 440.441 110.031 451.002 112.236 461.825L151.431 453.841ZM178.917 496.583L179.274 476.587C179.155 476.584 179.036 476.583 178.917 476.583L178.917 496.583ZM247.207 462.097C249.562 451.305 242.722 440.648 231.93 438.293C221.138 435.938 210.481 442.778 208.126 453.57L247.207 462.097ZM579.934 271.708C581.575 261.039 583.2 251.702 584.478 244.038L545.022 237.462C543.8 244.798 542.091 254.627 540.399 265.626L579.934 271.708ZM584.362 244.672C584.961 241.677 585.963 235.057 588.269 226.215L549.564 216.118C546.871 226.444 545.373 235.657 545.138 236.828L584.362 244.672ZM588.319 226.017C589.157 222.667 589.671 220.73 590.075 219.407C590.262 218.795 590.386 218.446 590.459 218.257C590.523 218.09 590.552 218.034 590.555 218.028L554.778 200.139C552.365 204.965 551.06 210.132 549.514 216.316L588.319 226.017ZM591.236 216.511C593.035 212.015 594.88 209.386 595.768 208.349L565.398 182.318C561.287 187.114 557.299 193.651 554.097 201.656L591.236 216.511ZM594.725 209.475C595.015 209.186 595.242 208.942 595.333 208.844C595.426 208.743 595.529 208.631 595.534 208.625C595.591 208.563 595.519 208.643 595.41 208.755C595.173 208.999 594.721 209.443 594.08 209.936C592.734 210.971 590.685 212.12 588.038 212.561L581.462 173.105C576.315 173.963 572.391 176.154 569.691 178.231C567.678 179.78 564.83 182.803 566.441 181.191L594.725 209.475ZM588.038 212.561C584.138 213.211 581.209 212.17 579.963 211.625C579.243 211.31 578.658 210.976 578.201 210.683C577.963 210.531 577.735 210.375 577.514 210.215C577.402 210.134 577.291 210.052 577.179 209.966C577.123 209.924 577.067 209.88 577.011 209.836C576.982 209.814 576.954 209.792 576.925 209.769C576.911 209.758 576.897 209.747 576.883 209.735C576.875 209.729 576.868 209.724 576.861 209.718C576.857 209.715 576.852 209.711 576.85 209.709C576.845 209.705 576.839 209.701 589.333 194.083C601.827 178.466 601.822 178.462 601.816 178.457C601.814 178.456 601.809 178.451 601.805 178.448C601.798 178.443 601.791 178.437 601.783 178.431C601.768 178.419 601.753 178.407 601.738 178.395C601.708 178.371 601.676 178.346 601.644 178.321C601.579 178.271 601.511 178.218 601.439 178.163C601.296 178.054 601.137 177.935 600.964 177.81C600.619 177.561 600.209 177.277 599.736 176.975C598.81 176.384 597.549 175.658 595.995 174.979C593.083 173.705 587.862 172.039 581.462 173.105L588.038 212.561ZM575.191 208.225C575.824 208.858 576.546 209.542 577.001 209.975C577.536 210.485 578.002 210.932 578.472 211.403C579.393 212.323 580.249 213.253 581.046 214.279L612.62 189.721C608.684 184.661 603.968 180.434 603.475 179.941L575.191 208.225ZM582.034 215.453C583.389 216.943 584.123 217.91 585.349 219.643C586.705 221.561 588.738 224.539 592.083 229L624.083 205C621.179 201.128 619.669 198.897 618.005 196.544C616.21 194.006 614.444 191.64 611.632 188.547L582.034 215.453ZM591.809 228.625C594.036 231.743 598.508 237.087 600.213 239.279L631.787 214.721C627.658 209.413 626.297 208.09 624.358 205.375L591.809 228.625ZM599.359 238.094C600.104 239.212 600.933 240.254 601.42 240.859C602.01 241.592 602.691 242.411 603.385 243.238C604.878 245.018 606.466 246.883 608.552 249.387L639.281 223.78C637.201 221.284 635.247 218.982 634.032 217.533C633.371 216.745 632.907 216.184 632.585 215.784C632.16 215.256 632.312 215.413 632.641 215.906L599.359 238.094ZM608.437 249.248C612.698 254.455 618.612 260.806 624.743 267.345L653.924 239.988C647.555 233.194 642.635 227.878 639.396 223.919L608.437 249.248ZM653.475 239.525C651.949 237.998 627.081 212.577 590.581 220.356L598.919 259.477C605.957 257.977 612.081 259.607 617.065 262.132C619.566 263.399 621.609 264.817 623.054 265.952C623.765 266.512 624.304 266.981 624.651 267.297C624.981 267.597 625.149 267.767 625.191 267.809L653.475 239.525ZM590.411 220.393C569.957 224.938 549.337 239.803 541.664 262.18L579.502 275.153C581.83 268.363 589.543 261.562 599.089 259.44L590.411 220.393ZM542.014 261.239C540.328 265.453 539.638 269.348 539.189 272.045L578.645 278.621C579.028 276.319 579.172 276.047 579.153 276.094L542.014 261.239ZM539.259 271.648C537.878 279.012 537.189 287.912 536.571 292.853L576.262 297.814C577.311 289.422 577.455 284.988 578.574 279.019L539.259 271.648ZM536.571 292.853C536.192 295.883 535.712 299.059 535.184 302.546C534.671 305.934 534.109 309.633 533.654 313.269L573.346 318.231C573.724 315.201 574.204 312.025 574.733 308.538C575.246 305.15 575.808 301.451 576.262 297.814L536.571 292.853ZM533.701 312.922L527.451 356.672L567.049 362.328L573.299 318.578L533.701 312.922ZM527.483 356.459C526.616 362.093 525.862 367.696 525.137 373.082C524.404 378.529 523.699 383.759 522.899 388.959L562.434 395.041C563.301 389.407 564.054 383.804 564.78 378.418C565.513 372.971 566.217 367.741 567.017 362.541L527.483 356.459ZM522.868 389.172C522.084 394.656 520.61 401.888 518.796 412.323L558.204 419.177C559.723 410.445 561.582 401.011 562.466 394.828L522.868 389.172ZM518.869 411.926C512.388 445.195 505.564 475.073 486.735 494.231L515.265 522.269C543.936 493.094 552.112 450.472 558.131 419.574L518.869 411.926ZM486.858 494.108C484.6 496.366 482.563 497.933 480.834 498.878C479.184 499.78 478.195 499.917 477.667 499.917V539.917C494.834 539.917 507.618 529.917 515.142 522.392L486.858 494.108ZM477.667 499.917C477.433 499.917 476.462 499.859 474.537 498.567C472.536 497.225 470.26 495.036 467.948 492.107L436.552 516.893C443.673 525.912 457.602 539.917 477.667 539.917V499.917ZM468.334 492.612C457.112 477.43 452.431 457.005 446.714 432.816L407.786 442.017C412.902 463.662 419.055 493.237 436.166 516.388L468.334 492.612ZM446.692 432.724C441.063 409.403 437.469 387.793 435.48 368.303L395.687 372.364C397.865 393.707 401.771 417.097 407.808 442.109L446.692 432.724ZM435.311 367.045C435.253 366.693 435.195 366.354 435.144 366.057C435.092 365.748 435.047 365.488 435.005 365.235C434.921 364.732 434.867 364.379 434.827 364.089C434.755 363.559 434.75 363.352 434.75 363.25H394.75C394.75 367.815 395.565 371.879 395.855 373.621L435.311 367.045ZM434.558 360.486L419.558 252.986L379.942 258.514L394.942 366.014L434.558 360.486ZM419.552 252.943C412.201 201.078 406.582 146.164 394.683 93.045L355.65 101.788C367.085 152.836 372.299 204.589 379.948 258.557L419.552 252.943ZM394.715 93.19C391.318 77.4809 386.681 59.26 377.725 42.8396L342.609 61.9937C348.652 73.0734 352.348 86.5191 355.618 101.643L394.715 93.19ZM377.796 42.9722C374.423 36.676 369.477 28.259 362.704 21.0576C355.923 13.849 345.739 6.21297 331.925 4.99409L328.409 44.8393C328.761 44.8704 330.452 45.151 333.567 48.4632C336.689 51.7827 339.66 56.4906 342.537 61.8611L377.796 42.9722ZM332.375 5.03901C317.604 3.39771 304.785 9.97382 296.318 17.2315L322.349 47.6018C323.77 46.3837 325.154 45.586 326.268 45.1602C327.353 44.7451 327.888 44.7865 327.958 44.7944L332.375 5.03901ZM296.318 17.2315C278.88 32.1782 270.325 51.9819 265.335 70.4919C260.528 88.3253 258.279 108.522 255.862 122.837L295.304 129.496C298.304 111.728 299.806 96.2997 303.956 80.9039C307.925 66.1848 313.537 55.1552 322.349 47.6018L296.318 17.2315ZM255.866 122.818C252.048 145.299 249.089 166.872 246.565 187.486L286.268 192.348C288.744 172.128 291.618 151.201 295.301 129.515L255.866 122.818ZM246.592 187.273C246.182 190.347 245.772 193.323 245.354 196.351C244.938 199.365 244.516 202.43 244.092 205.607L283.741 210.893C284.151 207.82 284.562 204.843 284.979 201.816C285.395 198.802 285.818 195.737 286.241 192.56L246.592 187.273ZM244.104 205.517C239.107 241.748 234.091 278.11 229.491 314.491L269.175 319.509C273.742 283.39 278.727 247.252 283.729 210.983L244.104 205.517ZM229.524 314.244C222.665 363.547 218.749 409.851 207.798 455.685L246.702 464.981C258.251 416.649 262.669 366.286 269.143 319.756L229.524 314.244ZM207.776 455.776C203.152 475.533 197.64 489.479 187.816 496.784L211.684 528.883C234.36 512.021 242.181 484.301 246.724 464.891L207.776 455.776ZM187.987 496.659C186.435 497.787 185.134 498.554 184.08 499.029C183.04 499.498 182.541 499.547 182.492 499.551L185.342 539.449C196.679 538.639 205.767 533.187 211.513 529.008L187.987 496.659ZM182.492 499.551C182.411 499.557 181.927 499.571 180.953 499.282C179.969 498.991 178.735 498.462 177.327 497.641L157.173 532.192C164.073 536.218 173.992 540.26 185.342 539.449L182.492 499.551ZM177.327 497.641C171.426 494.198 166.188 488.272 161.919 480.391L126.748 499.442C133.312 511.561 143.074 523.968 157.173 532.192L177.327 497.641ZM161.919 480.391C157.573 472.368 154.305 462.82 151.562 452.634L112.938 463.033C116.029 474.513 120.26 487.466 126.748 499.442L161.919 480.391ZM151.471 452.304C143.091 423.175 137.827 393.38 133.288 362.431L93.7117 368.236C98.3392 399.787 103.909 431.658 113.029 463.363L151.471 452.304ZM133.279 362.367C132.008 353.892 130.634 345.439 129.283 337.125C127.925 328.772 126.591 320.559 125.362 312.367L85.8046 318.3C87.0757 326.774 88.4497 335.228 89.8006 343.541C91.1581 351.895 92.4924 360.108 93.7213 368.3L133.279 362.367ZM125.311 312.045C123.558 301.527 121.867 286.854 119.362 274.328L80.1384 282.172C82.633 294.646 83.4418 304.139 85.8555 318.621L125.311 312.045ZM119.465 274.884C114.98 248.617 92.8795 229.402 69.5569 224.154L60.7764 263.179C70.7871 265.431 78.6866 273.717 80.0353 281.616L119.465 274.884ZM69.6893 224.185C52.7398 220.25 38.1663 223.814 27.9972 228.254C22.9212 230.471 18.8105 232.955 15.8292 234.983C13.2179 236.76 10.311 239.079 11.0833 238.5L35.0833 270.5C37.841 268.432 47.5908 260.118 60.6441 263.149L69.6893 224.185ZM37.2255 268.642C46.1658 259.702 53.2574 251.283 57.8605 244.634L24.9728 221.866C22.076 226.05 16.6676 232.632 8.94121 240.358L37.2255 268.642ZM57.7482 244.795C66.3028 232.693 71.7378 224.959 75.0409 220.24C76.6927 217.88 77.8129 216.273 78.5249 215.248C78.8809 214.735 79.1352 214.368 79.3032 214.125C79.3871 214.004 79.4496 213.914 79.4924 213.851C79.5138 213.82 79.5304 213.796 79.5422 213.779C79.5482 213.771 79.5529 213.764 79.5566 213.758C79.5584 213.756 79.5599 213.753 79.5612 213.752C79.5618 213.751 79.5624 213.75 79.5629 213.749C79.5631 213.749 79.5634 213.748 79.5636 213.748C79.5639 213.748 79.5641 213.747 63.0833 202.417C46.6025 191.086 46.6028 191.086 46.603 191.085C46.6031 191.085 46.6033 191.085 46.6034 191.085C46.6036 191.085 46.6037 191.084 46.6038 191.084C46.6039 191.084 46.6038 191.084 46.6033 191.085C46.6024 191.086 46.6004 191.089 46.5971 191.094C46.5906 191.103 46.5793 191.12 46.563 191.143C46.5303 191.191 46.4776 191.267 46.4029 191.375C46.2535 191.591 46.0162 191.934 45.6757 192.424C44.9944 193.405 43.9011 194.974 42.2716 197.302C39.0122 201.958 33.6139 209.64 25.0851 221.705L57.7482 244.795ZM80.9719 211.361C80.6174 212.07 80.311 212.562 80.2017 212.734C80.0669 212.948 79.9793 213.072 79.9733 213.08C79.9671 213.089 80.0672 212.948 80.3287 212.612C80.8469 211.946 81.6119 211.007 82.6144 209.804L51.8856 184.196C50.8048 185.493 49.6948 186.846 48.7546 188.055C48.2681 188.68 46.4449 190.972 45.1948 193.472L80.9719 211.361ZM81.3922 211.142C81.4809 211.053 81.5516 210.999 81.6166 210.954C81.6861 210.907 81.8011 210.835 82.0276 210.722L64.1391 174.945C61.1855 176.422 57.1434 178.822 53.1079 182.858L81.3922 211.142ZM66.7588 211.807C66.2989 211.654 65.947 211.512 65.7211 211.415C65.4885 211.315 65.3195 211.234 65.2198 211.184C65.0299 211.089 64.9734 211.05 65.0502 211.097C65.1171 211.138 65.2463 211.22 65.4251 211.346C65.6016 211.471 65.7995 211.619 66.0061 211.784L90.9939 180.549C88.2818 178.38 84.0061 175.392 79.4079 173.86L66.7588 211.807ZM65.4842 211.352C65.4887 211.356 65.6203 211.43 65.8615 212.011C66.2055 212.84 66.3793 213.611 66.8929 215.922L105.94 207.245C105.259 204.176 103.07 190.885 91.5158 180.982L65.4842 211.352ZM66.8731 215.832C68.0233 221.123 69.6021 226.765 70.697 231.008C71.8933 235.644 72.7762 239.538 73.2378 243.231L112.929 238.269C112.14 231.962 110.732 226.064 109.428 221.013C108.023 215.568 106.893 211.627 105.96 207.335L66.8731 215.832ZM73.3877 244.226C73.9875 247.625 74.6895 251.937 75.5899 257.392C76.4794 262.782 77.5351 269.117 78.8043 276.309L118.196 269.358C116.965 262.383 115.937 256.218 115.056 250.878C114.186 245.605 113.429 240.959 112.779 237.274L73.3877 244.226ZM390.514 74.7026C383.934 45.3924 357.682 23.6667 327.25 23.6667V63.6667C338.485 63.6667 348.899 71.941 351.486 83.4641L390.514 74.7026ZM327.25 23.6667C296.595 23.6667 270.932 45.6159 264.402 74.7026L303.431 83.4641C306.068 71.7175 316.238 63.6667 327.25 63.6667V23.6667ZM415.187 469.03C424.497 499.869 454.17 520.583 485.838 518.193L482.828 478.307C470.33 479.25 457.504 470.798 453.48 457.47L415.187 469.03ZM485.607 518.209C514.108 516.39 537.94 496.023 546.001 468.96L507.666 457.54C504.061 469.643 493.725 477.61 483.059 478.291L485.607 518.209ZM112.236 461.825C118.704 493.579 146.847 516.583 178.917 516.583V476.583C165.986 476.583 154.129 467.087 151.431 453.841L112.236 461.825ZM178.56 516.58C211.522 517.169 240.194 494.239 247.207 462.097L208.126 453.57C205.139 467.261 192.978 476.831 179.274 476.587L178.56 516.58ZM642 289C642 435.102 505.396 558 331 558V598C522.217 598 682 462.119 682 289H642ZM331 558C156.604 558 20 435.102 20 289H-20C-20 462.119 139.783 598 331 598V558ZM20 289C20 142.898 156.604 20 331 20V-20C139.783 -20 -20 115.881 -20 289H20ZM331 20C505.396 20 642 142.898 642 289H682C682 115.881 522.217 -20 331 -20V20Z" fill="#010D00" mask="url(#path-7-inside-1_3_45)"/>
</svg>
